# xmcd
#
# Track frame offsets:
#	150
#	30297
#	32686
#	46166
#	52228
#	57190
#	86893
#	89774
#	94778
#	98332
#	106777
#	156139
#	158703
#	174823
#	190214
#	197967
#	202382
#	220833
#	234148
#	237876
#	253079
#
# Disc length: 3586 seconds
#
# Revision: 0
# Processed by: cddbd v1.5.2PL0 Copyright (c) Steve Scherf et al.
# Submitted via: dBpowerAMP V4.0
#
DISCID=130e0015
DTITLE=Larry The Cable Guy - Christmastime In Larryland
DYEAR=2007
DGENRE=Christmas
TTITLE0=Introduction and Opening Monologue
TTITLE1=Lapquest
TTITLE2=Eulogy
TTITLE3=Tobacco Company Choir
TTITLE4=Plus-Sized Fashion Shorts
TTITLE5=Nativity Scene
TTITLE6=Farting Jingle Bells
TTITLE7=Bobblehead Heating Dolls
TTITLE8=Comedian Muhammad and Oscar
TTITLE9=Holiday Carols
TTITLE10=A Santa's Q&A
TTITLE11=Nutcracker
TTITLE12=Dysfunctional Family Christmas
TTITLE13=Liberal Commie Environmental Poem
TTITLE14=Magic O' The Mime
TTITLE15=1-900 . . . *
TTITLE16=The Chitmunks
TTITLE17=Patriotic Poem
TTITLE18=Medley Of Carols
TTITLE19=Closing Monologue
TTITLE20=DATA
EXTD=
EXTT0=
EXTT1=
EXTT2=
EXTT3=
EXTT4=
EXTT5=
EXTT6=
EXTT7=
EXTT8=
EXTT9=
EXTT10=
EXTT11=
EXTT12=
EXTT13=
EXTT14=
EXTT15=
EXTT16=
EXTT17=
EXTT18=
EXTT19=
EXTT20=
PLAYORDER=
